<?xml version="1.0" encoding="utf-8"?>
<!-- Generator: Adobe Illustrator 28.3.0, SVG Export Plug-In . SVG Version: 6.00 Build 0)  -->
<svg version="1.1" id="Layer_1" xmlns="http://www.w3.org/2000/svg" xmlns:xlink="http://www.w3.org/1999/xlink" x="0px" y="0px"
	 viewBox="0 0 64 64" style="enable-background:new 0 0 64 64;" xml:space="preserve">
<style type="text/css">
	.st0{fill:url(#SVGID_1_);}
	.st1{fill:#FFFFFF;}
</style>
<linearGradient id="SVGID_1_" gradientUnits="userSpaceOnUse" x1="7.8485" y1="48.7762" x2="55.7664" y2="15.2238">
	<stop  offset="1.076915e-03" style="stop-color:#D40E8C"/>
	<stop  offset="0.1197" style="stop-color:#B21B85"/>
	<stop  offset="0.357" style="stop-color:#7D237C"/>
	<stop  offset="0.5723" style="stop-color:#572575"/>
	<stop  offset="0.758" style="stop-color:#3A2470"/>
	<stop  offset="0.9068" style="stop-color:#25236C"/>
	<stop  offset="1" style="stop-color:#1D236B"/>
</linearGradient>
<path class="st0" d="M30,2.7l-17.7,7.4c-1.1,0.5-2,1.4-2.5,2.5L2.5,30.3c-0.5,1.1-0.5,2.4,0,3.5l7.4,17.7c0.5,1.1,1.4,2,2.5,2.5
	l17.7,7.3c1.1,0.5,2.4,0.5,3.5,0l17.7-7.4c1.1-0.5,2-1.4,2.5-2.5l7.3-17.7c0.5-1.1,0.5-2.4,0-3.5l-7.4-17.7c-0.5-1.1-1.4-2-2.5-2.5
	L33.5,2.7C32.4,2.2,31.1,2.2,30,2.7z"/>
<g>
	<path class="st1" d="M31.6,20v24h-4V34h-12v10h-4V34l4-4h12V20H31.6z"/>
	<path class="st1" d="M40,32l12,12h-5.7L35.9,33.7L34.3,32l1.7-1.7L46.3,20H52L40,32z M35.9,30.3L46.3,20L35.9,30.3z M46.3,44
		L35.9,33.7L46.3,44z"/>
</g>
<g>
	<path class="st1" d="M423,76.5l-5.2,6.2c-0.7,0.8-1.9,2.2-3.8,2.2c-2.2,0-2.9-1.4-2.9-2.4c0-1,0.3-1.7,0.5-2.6c0.2-0.7,1.4-5,1.4-5
		c0.5-1.7,0.4-3-0.1-3.8c-0.5-0.7-1.4-0.8-2-0.8c-2.9,0-4.4,2.8-5.2,5.7l-2.1,7.7c-0.2,0.6-0.7,1-1.4,1c-0.1,0-0.3,0-0.4-0.1
		c-0.8-0.2-1.2-1-1-1.7l1.6-5.8l-1.6,1.9c0,0-0.5,0.5-1.1,0.5c-0.7,0-1.4-0.7-1.4-1.5c0-0.5,0.3-0.8,0.3-0.8l1.5-1.7
		c1.4-1.7,4-4.9,4.6-6.7c0.3-0.8,0.3-1.1,0.6-2.1c0.5-1.9,1.1-3.8,1.6-5.7c0.2-0.8,1-1.2,1.7-1c0.8,0.2,1.2,1,1,1.7l-1.8,6.5
		c0.9-0.5,1.9-0.7,3-0.7c1.6,0,3.3,0.6,4.3,1.9c0.8,1.1,1.5,3,0.6,6.3l-1.4,5.1c-0.1,0.4-0.3,0.9-0.3,1.3c0.5,0,0.8-0.3,1.6-1.1
		l5.3-6.3c0.5-0.6,1.4-0.7,2-0.2C423.5,75.1,423.5,75.9,423,76.5z"/>
	<path class="st1" d="M444.4,76.1l-5.7,6.8c-0.6,0.7-1.8,2-3.7,2c-2.1,0-3-0.7-4.2-2.7c-1-1.7-1.6-2.8-2.3-4.1
		c-0.5-0.9,0-2.1,1.2-2.2c1.2-0.1,2.3-0.3,3.3-0.8c0.8-0.4,1.7-1.1,2-2.3c0.2-0.6,0.1-1.2-0.3-1.7c-0.4-0.6-1.3-1-2.3-1
		c-1.6,0-2.9,0.8-4,2.4c-1.1,1.6-1.6,3.5-2.1,5.3c-0.5,1.9-1,3.8-1.6,5.7c-0.2,0.7-0.8,1.1-1.4,1.1c-1.1,0-1.6-0.9-1.4-1.8
		c0,0,2-7.5,2-7.5l-1.7,2c-0.3,0.3-0.7,0.5-1.1,0.5c-0.3,0-0.6-0.1-0.9-0.3c-0.6-0.5-0.6-1.5-0.1-2.1l2.8-3.4l0.7-0.9
		c-0.1,0.1,2-2.4,2.7-4.8c0.5-1.7,1-3.5,1.6-5.6c0.2-0.8,1-1.2,1.7-1c0.8,0.2,1.2,1,1,1.7l-1.8,6.7c1.1-0.6,2.2-0.9,3.5-0.9
		c1.9,0,3.6,0.8,4.6,2.1c0.9,1.2,1.1,2.6,0.7,4.1c-0.5,1.7-1.7,3.1-3.4,4c-0.7,0.4-1.6,0.7-2.4,0.9c0.4,0.7,0.8,1.4,1.3,2.2
		c0.4,0.7,0.9,1.4,1.6,1.4c0.7,0,1.1-0.4,1.5-0.7c0.4-0.4,0.8-0.9,6-7.1c0.5-0.6,1.4-0.7,2-0.1C444.8,74.7,444.9,75.6,444.4,76.1z"
		/>
</g>
</svg>
